<?xml version="1.0" standalone="no"?>
<!DOCTYPE svg PUBLIC "-//W3C//DTD SVG 20010904//EN"
 "http://www.w3.org/TR/2001/REC-SVG-20010904/DTD/svg10.dtd">
<svg version="1.0" xmlns="http://www.w3.org/2000/svg"
 width="100.000000pt" height="100.000000pt" viewBox="0 0 100.000000 100.000000"
 preserveAspectRatio="xMidYMid meet">

<g transform="translate(0.000000,100.000000) scale(0.100000,-0.100000)"
fill="#000000" stroke="none">
<path d="M410 929 c-120 -23 -254 -131 -306 -244 -101 -221 -8 -479 211 -586
67 -32 75 -34 185 -34 114 0 117 1 191 37 93 46 168 122 212 215 30 64 32 74
32 183 0 110 -2 118 -34 185 -90 185 -289 284 -491 244z m30 -242 c0 -8 -27
-78 -59 -156 -50 -119 -57 -143 -44 -148 30 -12 48 15 108 163 l60 149 58 3
c43 2 57 0 57 -11 0 -17 -19 -125 -27 -151 -10 -34 14 -8 58 65 58 97 61 99
130 99 48 0 60 -3 57 -15 -2 -8 -63 -102 -136 -210 l-133 -195 -179 0 c-191 0
-210 5 -210 52 0 27 130 350 144 360 20 14 116 9 116 -5z"/>
</g>
</svg>
